<?xml version="1.0" standalone="no"?>
<!DOCTYPE svg PUBLIC "-//W3C//DTD SVG 20010904//EN"
 "http://www.w3.org/TR/2001/REC-SVG-20010904/DTD/svg10.dtd">
<svg version="1.0" xmlns="http://www.w3.org/2000/svg"
 width="928.000000pt" height="928.000000pt" viewBox="0 0 928.000000 928.000000"
 preserveAspectRatio="xMidYMid meet">
<metadata>
Created by potrace 1.14, written by Peter Selinger 2001-2017
</metadata>
<g transform="translate(0.000000,928.000000) scale(0.100000,-0.100000)"
fill="#000000" stroke="none">
<path d="M170 8995 l0 -285 3129 0 3129 0 10 27 c5 16 20 39 32 53 12 14 32
37 44 51 32 38 94 75 164 98 108 37 278 11 353 -52 10 -9 22 -17 25 -17 8 0
54 -52 84 -96 46 -65 65 -137 64 -239 0 -71 -5 -100 -22 -137 -12 -26 -22 -51
-22 -56 0 -5 -25 -37 -56 -71 -56 -61 -137 -112 -200 -127 -41 -9 -164 -13
-164 -5 0 3 -14 6 -30 7 -87 3 -224 105 -266 197 l-17 37 -3129 0 -3128 -1 0
-185 0 -186 2905 4 2905 4 21 -23 c12 -12 26 -20 32 -16 6 3 7 2 4 -4 -7 -11
146 -166 156 -158 4 3 5 2 3 -1 -6 -8 48 -62 57 -57 4 2 7 -5 7 -16 0 -12 7
-21 15 -21 8 0 15 -4 15 -10 0 -17 122 -140 133 -133 5 3 7 1 4 -5 -4 -5 5
-21 20 -34 l28 -23 0 -260 c0 -143 3 -261 7 -263 4 -1 19 -14 34 -27 15 -14
32 -22 38 -18 6 3 8 3 4 -1 -3 -4 13 -25 36 -46 37 -34 84 -113 112 -185 9
-24 12 -205 3 -199 -4 2 -10 -11 -14 -29 -4 -17 -9 -35 -10 -39 -1 -5 -3 -15
-4 -24 0 -8 -4 -13 -9 -11 -4 3 -20 -14 -35 -36 -16 -23 -50 -58 -75 -77 -25
-19 -51 -41 -59 -48 -7 -7 -13 -11 -13 -8 0 3 -24 -3 -53 -14 -134 -51 -339 1
-432 111 -12 15 -26 26 -29 23 -3 -2 -4 -1 -1 2 2 4 -4 19 -14 33 -36 52 -53
115 -56 201 -2 48 1 90 7 97 6 7 8 22 5 33 -3 13 -1 18 6 13 7 -4 8 0 4 11 -4
9 -3 15 1 12 5 -3 16 10 25 30 9 19 35 54 57 78 22 23 36 47 32 51 -4 5 -2 5
5 1 6 -3 18 2 25 11 7 10 20 19 28 21 8 2 23 12 32 22 16 17 17 40 14 214 l-3
194 -59 62 c-32 34 -71 68 -86 76 -16 8 -28 20 -28 28 0 7 -29 40 -64 74 l-63
61 -1264 -1 -1264 0 -37 -36 c-21 -20 -38 -39 -38 -44 0 -4 -49 -55 -110 -114
-60 -59 -107 -111 -104 -116 3 -5 0 -7 -7 -6 -7 2 -18 -7 -23 -19 -6 -12 -18
-24 -28 -27 -10 -2 -17 -10 -16 -17 2 -7 -1 -13 -7 -14 -19 -1 -35 -16 -29
-27 4 -6 2 -8 -3 -5 -13 8 -175 -162 -167 -174 3 -5 0 -9 -5 -9 -16 0 -71 -51
-66 -61 3 -4 -10 -17 -27 -28 -18 -11 -125 -113 -236 -225 -112 -113 -212
-208 -222 -211 -17 -5 -1456 -18 -1565 -14 -100 4 -272 4 -362 -1 l-93 -5 0
-180 0 -180 1105 0 1105 1 45 44 c24 24 42 47 39 52 -3 5 0 7 7 6 7 -2 13 4
14 12 0 8 5 15 12 15 19 0 204 196 196 208 -4 6 -1 7 6 3 8 -5 14 0 18 13 3
11 9 19 13 16 4 -2 69 58 144 135 75 77 134 140 131 140 -3 0 0 6 7 14 7 8 16
12 20 10 4 -2 9 5 13 16 3 11 12 20 18 20 17 0 239 224 231 233 -4 4 0 7 10 7
9 0 21 10 26 23 5 12 9 18 9 12 1 -5 35 24 76 65 40 40 71 78 68 84 -3 6 -3 8
2 4 4 -4 14 -3 21 3 9 7 287 10 913 10 581 0 902 3 906 9 3 6 14 10 23 9 14 0
13 -2 -3 -9 -12 -6 49 -8 162 -6 100 1 180 -1 177 -6 -5 -7 10 -12 29 -9 4 0
7 -4 7 -9 0 -5 3 -9 8 -7 4 1 8 -1 9 -6 2 -4 12 -24 23 -44 39 -73 21 -158
-43 -207 -61 -47 -67 -47 -542 -46 -1353 2 -1518 0 -1537 -17 -10 -9 -18 -20
-18 -25 0 -5 -7 -16 -15 -24 -8 -9 -15 -13 -15 -10 0 10 -37 -25 -133 -123
-121 -123 -117 -119 -120 -128 -1 -4 -5 -7 -10 -5 -4 1 -12 -9 -19 -23 -6 -13
-15 -22 -19 -19 -5 3 -9 -2 -9 -10 0 -9 -6 -16 -12 -16 -18 0 -220 -205 -211
-213 3 -4 0 -7 -8 -7 -8 0 -59 -45 -113 -100 l-99 -99 390 -1 389 0 22 23 c12
13 19 27 15 32 -5 4 -3 5 3 2 14 -8 47 26 37 37 -5 4 -3 6 2 4 6 -2 35 24 65
57 63 68 85 90 192 192 41 40 73 74 71 77 -3 2 5 10 17 16 15 8 165 12 507 13
l486 2 17 30 c10 17 15 33 13 38 -2 4 1 7 7 7 6 0 9 4 5 9 -3 6 4 15 16 21 11
7 18 14 15 17 -3 4 24 28 61 55 121 89 259 110 391 60 29 -11 52 -19 52 -17 0
2 16 -11 36 -28 19 -18 41 -32 47 -32 6 0 16 -9 22 -20 5 -11 20 -34 31 -50
71 -100 97 -223 68 -328 -9 -34 -17 -70 -17 -79 -1 -9 -5 -14 -9 -12 -8 5 -12
-12 -8 -31 1 -5 -1 -7 -5 -3 -4 4 -24 -15 -45 -41 -36 -46 -124 -111 -149
-111 -7 0 -10 -4 -7 -9 4 -5 -4 -7 -16 -3 -14 3 -19 1 -14 -6 5 -8 2 -10 -9
-6 -8 4 -21 2 -28 -4 -6 -5 -48 -7 -92 -5 -44 2 -90 4 -102 4 -13 1 -20 5 -17
10 3 5 -1 9 -9 9 -20 0 -107 47 -134 73 -13 11 -23 17 -23 13 0 -5 -7 -3 -15
4 -8 6 -13 17 -12 23 1 7 -4 11 -11 9 -8 -1 -11 2 -7 7 3 6 -1 21 -10 35 l-16
24 -399 1 c-219 1 -405 4 -414 7 -20 8 -109 -63 -100 -78 4 -6 2 -8 -3 -5 -13
8 -46 -27 -36 -38 5 -4 3 -5 -3 -2 -14 8 -317 -296 -307 -308 4 -4 3 -5 -3 -2
-13 8 -257 -236 -247 -248 5 -4 3 -5 -3 -2 -6 4 -35 -20 -64 -54 -42 -48 -50
-63 -39 -70 8 -5 227 -9 486 -9 l472 0 15 29 c9 16 12 31 9 35 -4 3 -1 6 6 6
7 0 9 5 6 10 -3 6 -1 10 5 10 6 0 9 4 6 9 -3 5 1 12 10 15 9 4 14 9 11 12 -7
8 99 101 124 109 11 4 19 12 19 20 0 7 7 16 16 19 8 3 12 2 9 -4 -3 -6 -1 -10
4 -10 6 0 11 4 11 9 0 10 34 13 138 15 79 0 132 -6 132 -15 0 -4 12 -10 27
-13 60 -16 165 -109 202 -181 83 -161 55 -346 -71 -476 -29 -30 -56 -53 -60
-51 -5 1 -11 -5 -14 -13 -3 -8 -10 -13 -14 -10 -4 2 -18 -5 -31 -16 -13 -11
-31 -18 -41 -16 -10 3 -18 2 -18 -1 0 -4 -46 -7 -103 -7 -99 0 -105 1 -182 39
-44 22 -93 55 -108 73 -16 18 -33 30 -39 27 -7 -4 -8 -2 -4 4 4 7 2 12 -4 12
-6 0 -9 4 -6 9 20 31 -20 33 -959 29 -514 -1 -935 -6 -935 -11 0 -4 -70 -5
-155 -1 -85 3 -169 3 -186 -1 l-31 -7 63 -64 c34 -34 66 -61 71 -58 5 3 7 0 6
-7 -2 -7 3 -13 10 -14 6 0 12 -4 13 -10 1 -16 32 -47 57 -56 12 -5 22 -15 22
-22 0 -7 39 -52 88 -99 48 -47 88 -90 90 -94 1 -5 7 -9 12 -9 6 0 11 -4 12
-10 2 -12 21 -34 28 -32 3 1 25 -19 48 -45 40 -43 48 -47 90 -48 26 0 284 -3
574 -6 l526 -6 12 23 c7 13 28 43 46 65 18 23 31 44 29 48 -3 3 -2 4 1 1 4 -2
25 11 47 30 22 19 55 39 74 46 18 6 31 14 28 18 -2 5 6 7 18 7 12 -1 27 0 32
3 16 10 175 7 175 -3 0 -4 11 -6 25 -3 14 2 23 2 21 -1 -3 -3 16 -15 42 -27
27 -12 64 -36 84 -53 19 -18 38 -28 42 -24 4 4 7 2 6 -3 -5 -22 1 -29 11 -15
9 13 10 13 6 -1 -3 -9 8 -36 24 -60 16 -24 29 -50 29 -56 0 -7 4 -13 8 -13 11
0 13 -18 17 -137 2 -62 -1 -103 -7 -103 -5 0 -6 -10 -2 -22 3 -13 3 -20 -1
-16 -4 4 -23 -24 -42 -60 -37 -72 -88 -118 -188 -170 -44 -23 -63 -27 -162
-29 -74 -2 -113 1 -113 8 0 6 -9 8 -22 3 -13 -3 -20 -3 -16 1 4 4 -11 17 -33
28 -35 17 -178 137 -164 137 4 0 -4 14 -16 31 l-22 31 -581 -6 c-319 -3 -596
-9 -613 -12 -22 -4 -33 -2 -33 6 0 6 -5 10 -12 8 -10 -4 -144 115 -182 160 -6
8 -26 28 -44 45 -18 18 -99 98 -179 179 -80 81 -149 146 -152 145 -3 -1 -8 3
-9 8 -7 20 -25 35 -35 28 -5 -3 -7 -2 -4 4 8 13 -338 357 -351 349 -14 -9
-1177 -9 -1293 -1 -53 4 -126 4 -163 0 l-66 -7 0 -264 c0 -146 4 -263 8 -260
11 7 53 7 828 7 586 -1 673 -2 684 -16 7 -8 16 -12 21 -9 5 3 8 0 7 -8 -2 -7
3 -12 9 -11 7 2 12 -1 10 -5 -3 -11 86 -102 95 -96 4 3 8 0 8 -5 0 -6 5 -10
12 -8 6 1 14 -7 17 -18 7 -24 268 -281 282 -278 5 2 8 0 7 -5 -3 -10 47 -62
61 -62 6 0 11 -5 11 -11 0 -6 31 -45 69 -86 66 -73 69 -79 76 -139 3 -34 5
-204 3 -376 l-3 -313 85 -3 85 -2 23 35 c12 19 21 36 20 38 -2 1 17 20 42 42
25 22 47 43 50 46 12 15 118 63 150 68 115 18 228 -6 306 -65 24 -19 49 -34
55 -34 5 0 8 -4 5 -9 -7 -11 28 -43 37 -34 4 3 8 1 8 -5 2 -19 4 -24 40 -97
31 -64 34 -78 35 -167 0 -54 -2 -95 -6 -93 -3 2 -12 -13 -20 -33 -30 -86 -124
-185 -205 -219 -25 -10 -45 -22 -45 -26 0 -5 -4 -5 -10 -2 -5 3 -10 2 -10 -4
0 -7 -39 -10 -107 -8 -94 2 -116 6 -166 29 -32 15 -76 41 -96 58 -21 16 -41
27 -45 25 -3 -3 -4 -2 -1 1 7 11 -15 45 -26 39 -5 -4 -9 -3 -8 2 3 20 -2 34
-11 28 -5 -3 -11 -1 -11 4 -3 20 -5 26 -16 46 -10 17 -25 20 -143 23 -105 4
-134 2 -141 -9 -6 -10 -11 -11 -16 -3 -5 6 -42 12 -83 13 -41 1 -82 4 -90 6
-13 4 -15 57 -13 407 1 222 3 429 4 461 1 51 -2 62 -26 87 -16 16 -33 27 -38
23 -6 -3 -7 -1 -4 4 7 10 -287 303 -303 303 -5 0 -14 8 -19 18 -7 12 -10 -183
-10 -626 l0 -642 31 -23 c17 -12 35 -21 40 -19 5 1 7 -2 4 -7 -4 -5 4 -18 17
-28 12 -10 38 -38 57 -63 19 -25 37 -47 40 -50 3 -3 6 -11 8 -19 2 -8 10 -40
18 -70 15 -60 16 -203 0 -194 -5 4 -7 -4 -3 -16 4 -15 -2 -30 -19 -48 -13 -14
-24 -31 -24 -38 0 -13 -97 -126 -115 -135 -5 -3 -9 -8 -8 -12 2 -4 -5 -4 -14
-1 -11 4 -14 3 -9 -6 4 -6 4 -10 -1 -9 -4 1 -33 -7 -63 -17 -72 -25 -187 -26
-259 -2 -66 22 -147 81 -192 139 -18 24 -37 46 -42 49 -5 3 -8 9 -7 13 1 3 -8
31 -19 62 -23 61 -27 143 -10 214 7 25 12 52 13 60 1 8 16 35 34 59 18 24 32
50 32 58 0 8 4 12 8 9 5 -3 21 8 37 24 15 16 49 38 76 50 l49 21 0 693 0 694
-580 0 -580 0 0 -2149 0 -2149 733 0 732 0 -30 20 c-16 11 -27 20 -23 20 3 0
-6 13 -20 28 -42 44 -140 153 -139 155 6 8 -196 227 -232 250 -38 27 -65 51
-173 154 -56 53 -66 68 -58 83 8 15 31 30 45 30 6 0 69 -63 110 -111 22 -25
76 -86 120 -135 44 -49 102 -115 129 -146 27 -31 53 -55 58 -52 5 3 7 0 6 -8
-2 -7 3 -12 10 -10 6 1 12 -5 12 -13 0 -23 178 -212 223 -236 14 -8 29 1 77
47 33 31 57 61 53 67 -3 5 -2 7 4 4 5 -3 49 34 98 83 l88 89 -39 43 c-21 24
-42 42 -47 40 -5 -1 -6 1 -3 6 7 12 -168 184 -178 175 -4 -4 -6 -3 -4 2 2 6
-26 38 -61 71 -60 56 -63 61 -50 82 8 12 17 21 21 20 10 -4 327 -318 321 -318
-3 0 7 -10 23 -22 16 -12 33 -28 37 -35 4 -7 12 -13 18 -13 13 0 225 221 221
231 -1 5 4 8 10 7 7 -2 12 3 10 10 -1 8 1 11 5 9 5 -3 23 9 40 27 l32 32 -23
27 c-13 14 -26 24 -30 20 -3 -3 -6 -1 -6 6 0 12 -20 33 -138 143 -40 36 -72
70 -72 75 0 5 -16 23 -35 40 -19 17 -35 37 -35 43 0 16 58 5 80 -15 9 -8 22
-15 28 -15 13 0 82 -64 82 -77 0 -10 108 -119 115 -115 3 1 5 0 5 -3 0 -11 64
-75 74 -75 12 0 286 270 286 283 0 4 2 6 5 5 8 -5 84 75 79 84 -3 5 -1 7 4 6
14 -4 282 268 282 286 0 8 -10 22 -22 31 -13 8 -23 19 -23 23 0 13 -98 107
-108 104 -4 -1 -6 2 -3 7 7 10 -18 33 -27 26 -4 -3 -5 -2 -2 2 3 3 -33 46 -80
93 -47 48 -85 93 -85 99 0 6 11 11 24 11 17 0 61 -38 162 -141 157 -159 207
-201 232 -192 26 10 212 196 212 212 0 8 3 11 7 7 8 -8 83 64 83 80 0 7 -12
22 -27 34 -16 12 -55 47 -87 78 -33 31 -64 57 -70 57 -6 1 -10 6 -9 12 2 7
-42 53 -97 104 -93 88 -98 94 -83 111 9 10 21 18 27 18 11 0 65 -50 279 -259
l118 -115 89 89 c49 49 86 93 83 98 -3 6 -2 7 4 4 5 -3 38 23 74 59 l64 65
-78 75 c-45 43 -82 72 -89 68 -7 -5 -8 -3 -3 6 5 8 -8 27 -36 54 -83 79 -199
207 -199 220 0 8 7 19 16 27 12 10 19 10 32 1 10 -7 27 -17 40 -22 13 -5 21
-14 18 -18 -5 -9 140 -158 152 -156 4 1 6 -2 4 -7 -1 -5 10 -14 24 -19 15 -6
24 -13 21 -17 -9 -9 132 -151 148 -149 20 3 45 27 39 37 -3 5 -1 8 4 7 5 -2
71 58 146 134 l138 136 -29 33 c-74 86 -116 128 -124 123 -5 -3 -9 2 -9 11 0
9 -5 13 -10 10 -6 -4 -9 -2 -8 3 4 13 -148 162 -165 162 -7 0 -19 16 -26 36
-13 35 -12 37 19 69 18 19 41 33 51 32 9 -1 16 -4 14 -8 -6 -9 160 -169 174
-169 7 0 10 -4 6 -9 -3 -6 3 -15 15 -21 11 -6 25 -21 32 -33 7 -12 43 -51 81
-86 l67 -64 139 138 c76 76 138 144 137 152 -3 20 -169 182 -181 176 -5 -4 -6
-2 -2 2 9 11 -133 156 -145 149 -5 -3 -7 0 -6 7 2 7 -3 13 -11 14 -8 0 -15 8
-17 19 -5 34 7 45 44 44 20 -1 31 -3 24 -6 -14 -4 136 -149 150 -144 5 1 11
-5 15 -15 4 -9 47 -59 97 -111 l91 -94 167 173 168 173 -25 25 c-14 14 -40 42
-58 62 -18 20 -41 39 -52 41 -11 2 -19 10 -17 16 1 7 -2 12 -8 12 -6 0 -9 3
-8 8 3 9 -50 62 -62 62 -6 0 -10 4 -10 9 0 4 -28 36 -62 70 -58 58 -62 64 -45
76 20 14 52 14 52 -1 0 -5 27 -34 60 -64 68 -63 133 -129 214 -217 l58 -62 77
78 c42 42 73 80 70 84 -4 4 -2 7 5 7 7 0 42 28 77 62 79 76 81 98 14 158 -25
22 -48 40 -51 40 -4 0 -9 9 -12 21 -3 12 -10 18 -16 14 -6 -3 -11 -1 -11 5 0
6 -7 18 -15 26 -8 9 -15 13 -15 11 0 -3 -52 48 -116 114 -65 65 -122 116 -128
112 -6 -3 -8 -3 -4 2 4 4 3 14 -3 22 -15 17 5 43 33 43 21 0 88 -49 88 -65 0
-17 165 -176 175 -168 4 4 5 3 2 -3 -6 -11 9 -31 26 -33 4 -1 7 -4 7 -8 1 -5
17 -25 37 -46 27 -27 43 -35 58 -31 16 4 17 3 5 -5 -12 -8 -9 -16 20 -46 l34
-35 64 62 c34 35 68 74 75 88 7 13 15 22 19 20 10 -7 208 192 202 202 -3 4 1
8 8 8 19 0 110 94 101 105 -5 4 -3 5 4 1 8 -4 18 5 28 24 9 17 20 28 25 25 6
-4 10 -2 10 3 0 5 -46 51 -101 103 -56 52 -108 102 -117 111 -9 9 -20 14 -25
11 -6 -3 -7 -2 -4 4 8 12 -129 146 -168 165 -19 9 -29 20 -27 31 2 9 -2 17 -7
17 -6 0 -18 11 -27 25 -16 25 -16 27 11 55 19 20 35 27 54 25 14 -2 25 -8 23
-14 -1 -6 5 -11 14 -11 8 0 13 -4 10 -9 -6 -10 136 -143 165 -153 10 -4 19
-14 19 -23 0 -8 3 -14 8 -14 20 3 32 -2 32 -16 0 -8 9 -19 20 -25 11 -6 18
-14 16 -19 -3 -4 31 -41 76 -82 44 -41 87 -80 95 -88 12 -11 27 0 103 75 49
48 86 92 83 98 -3 6 -2 8 2 3 5 -4 30 14 57 40 39 38 45 49 35 61 -7 8 -11 18
-11 21 1 3 -2 5 -7 3 -5 -1 -8 2 -7 6 2 5 -23 32 -54 61 -32 29 -58 49 -58 45
0 -4 -6 -2 -12 5 -7 6 -13 17 -13 24 0 7 -7 12 -15 12 -8 1 -14 6 -12 13 1 7
-5 15 -14 19 -8 3 -72 61 -141 128 -89 87 -124 128 -121 141 10 53 47 23 364
-288 49 -48 94 -85 98 -81 4 5 6 1 4 -7 -2 -8 3 -15 10 -16 6 -1 17 -2 23 -3
6 0 8 -8 5 -16 -4 -12 0 -15 19 -12 31 4 117 86 110 105 -3 7 0 10 6 6 14 -8
70 46 62 59 -3 6 -2 7 4 4 9 -6 233 210 233 226 0 4 3 7 8 7 15 1 131 124 125
133 -3 6 -1 7 4 4 6 -4 18 2 28 12 16 19 14 22 -56 88 -40 37 -92 89 -116 114
-23 25 -54 52 -68 59 -14 7 -25 19 -25 25 0 16 -55 67 -63 58 -4 -3 -7 1 -7 9
0 9 -10 23 -22 31 -13 8 -52 44 -88 79 -35 34 -68 62 -72 60 -21 -6 -3 20 39
58 43 41 47 42 54 23 8 -22 27 -38 44 -38 6 0 10 -4 10 -10 0 -19 16 -35 27
-29 6 4 8 2 5 -3 -7 -11 66 -83 84 -83 5 0 8 -4 5 -9 -3 -4 3 -16 14 -26 11
-10 20 -14 20 -9 0 7 28 -22 69 -71 19 -24 91 -82 96 -79 3 2 3 1 0 -3 -8 -10
107 -123 118 -116 6 3 7 1 3 -6 -4 -6 0 -14 9 -17 17 -7 165 130 165 154 0 7
4 11 8 8 9 -5 65 47 63 58 -1 3 0 5 2 4 1 -2 9 4 18 11 14 13 14 17 0 32 -8
10 -18 16 -23 13 -5 -3 -7 -1 -6 4 2 6 -14 26 -34 45 -21 19 -38 33 -38 31 0
-2 -9 5 -20 16 -11 11 -25 20 -31 20 -6 0 -9 6 -6 14 4 9 -10 29 -33 50 -21
19 -37 36 -35 38 2 2 -20 29 -49 61 -29 31 -51 57 -48 57 4 0 1 5 -6 12 -7 7
-12 19 -12 27 0 12 3 11 18 -2 10 -10 24 -17 31 -17 7 0 10 -4 7 -9 -3 -5 1
-12 9 -15 8 -3 14 -9 13 -13 -3 -12 33 -63 44 -63 15 0 43 -32 43 -49 0 -9 5
-16 10 -16 19 -1 46 -22 49 -37 1 -9 35 -50 76 -92 l74 -76 118 117 c65 65
132 137 149 161 16 23 35 42 41 42 6 0 41 31 77 70 36 38 86 90 111 115 41 41
43 47 31 67 -11 17 -11 22 1 29 17 12 31 11 23 0 -3 -5 -1 -12 4 -15 13 -8 82
55 74 67 -3 6 -2 7 4 4 11 -7 156 136 148 146 -3 4 -2 5 2 2 4 -3 24 11 44 31
33 32 36 40 27 58 -15 30 -341 356 -355 356 -7 0 -13 5 -13 12 0 7 -19 31 -41
54 l-42 43 21 32 c26 41 64 47 100 14 14 -13 29 -22 33 -20 4 3 12 -2 19 -10
7 -8 10 -15 6 -15 -3 0 1 -8 8 -17 8 -10 27 -33 41 -51 15 -17 32 -29 37 -25
6 3 8 2 5 -3 -3 -6 36 -51 86 -101 51 -50 112 -116 137 -147 41 -50 69 -67 62
-37 -1 6 3 10 10 9 7 -2 12 4 13 12 1 8 6 14 11 13 11 -2 249 232 249 245 0 4
3 6 8 4 17 -5 5 16 -26 46 -18 18 -37 29 -41 25 -4 -5 -6 -3 -5 2 5 14 -180
191 -195 187 -6 -2 -8 0 -4 4 4 3 -13 29 -37 56 -25 28 -45 56 -45 63 0 26 26
21 66 -11 22 -19 44 -32 47 -29 4 3 5 2 2 -1 -5 -7 25 -39 36 -39 10 0 24 -15
24 -24 0 -12 151 -151 165 -151 6 0 9 -4 6 -8 -3 -5 8 -22 25 -38 29 -27 31
-28 44 -11 7 10 17 17 22 16 4 -1 14 9 20 22 7 13 13 20 13 15 0 -5 47 37 104
94 58 57 104 106 103 109 -1 3 2 7 7 8 11 2 26 24 26 40 0 6 -9 15 -20 18 -11
4 -18 10 -16 14 7 11 -59 73 -68 64 -4 -5 -6 -3 -4 3 4 13 -141 164 -156 161
-5 -1 -10 5 -11 13 0 8 -6 15 -12 15 -7 0 -12 4 -10 8 1 5 -9 15 -23 22 -14 8
-21 14 -16 15 6 0 -5 15 -22 33 -36 37 -32 49 23 60 17 4 24 4 16 0 -9 -4 19
-38 90 -109 57 -57 126 -128 153 -158 26 -31 53 -54 59 -53 6 1 11 -5 12 -13
1 -8 7 -14 15 -12 8 2 12 0 7 -4 -4 -4 0 -15 9 -25 13 -14 21 -16 36 -8 10 5
15 15 12 21 -4 6 -3 8 3 5 6 -4 58 43 117 104 98 102 106 113 106 150 0 36 -8
47 -102 147 -181 189 -220 242 -178 242 5 0 70 -62 145 -137 l135 -138 0 828
0 827 -4470 0 -4470 0 0 -285z m8034 -263 c17 -9 34 -15 39 -14 4 1 7 -4 7
-12 0 -7 7 -19 16 -27 55 -46 72 -175 33 -252 -20 -39 -69 -105 -69 -93 0 3
-19 -4 -42 -14 -74 -34 -161 -21 -232 33 -18 15 -37 23 -41 19 -5 -4 -5 -2 -1
5 3 6 -3 27 -14 46 -44 74 -33 177 26 254 58 77 189 103 278 55z m-2154 -1272
c0 -5 -2 -10 -4 -10 -3 0 -8 5 -11 10 -3 6 -1 10 4 10 6 0 11 -4 11 -10z
m1430 -1025 c75 -75 140 -132 145 -128 4 5 5 0 2 -10 -5 -12 0 -20 16 -26 22
-9 66 -51 53 -51 -4 0 0 -7 8 -16 21 -20 20 -31 -3 -44 -17 -8 -41 12 -187
158 -92 92 -172 166 -178 164 -6 -2 -8 0 -3 4 4 4 -3 18 -14 30 -18 19 -20 26
-9 39 7 8 17 15 23 15 6 0 72 -61 147 -135z m-1060 -835 c0 -5 -2 -10 -4 -10
-3 0 -8 5 -11 10 -3 6 -1 10 4 10 6 0 11 -4 11 -10z m-3767 -457 c-7 -2 -21
-2 -30 0 -10 3 -4 5 12 5 17 0 24 -2 18 -5z m3437 -483 c0 -5 -2 -10 -4 -10
-3 0 -8 5 -11 10 -3 6 -1 10 4 10 6 0 11 -4 11 -10z m-2753 -1672 c-3 -8 -6
-5 -6 6 -1 11 2 17 5 13 3 -3 4 -12 1 -19z m-2455 -1190 c9 -1 15 -5 13 -8 -2
-4 15 -18 38 -33 22 -15 38 -27 34 -27 -3 0 4 -16 17 -35 27 -39 41 -111 31
-158 -8 -37 -56 -127 -68 -127 -5 0 -5 -6 -1 -12 4 -7 4 -10 0 -6 -4 3 -28 -4
-53 -18 -64 -33 -152 -33 -216 0 -25 14 -48 21 -52 18 -4 -4 -5 -2 -4 3 2 6
-11 32 -29 59 -28 43 -32 58 -32 115 0 71 22 133 58 165 12 10 19 23 15 29 -3
5 -1 7 4 4 6 -4 14 0 17 9 3 8 9 13 13 11 5 -3 22 1 38 9 27 12 86 13 177 2z
m-341 -175 c-12 -20 -14 -14 -5 12 4 9 9 14 11 11 3 -2 0 -13 -6 -23z m1814
-63 c10 -11 22 -17 27 -14 4 3 7 2 6 -3 -4 -10 40 -58 53 -58 5 0 10 -4 10
-10 1 -5 39 -48 85 -94 46 -47 84 -89 84 -93 0 -4 3 -7 8 -6 4 2 8 0 9 -5 2
-4 17 -23 35 -43 50 -54 50 -58 13 -94 l-35 -34 -42 40 c-24 21 -44 42 -46 47
-4 8 -17 21 -133 133 -91 88 -140 141 -163 176 -16 25 -16 27 2 32 11 4 27 15
37 26 22 25 28 25 50 0z"/>
<path d="M188 7682 c-14 -3 -16 -7 -8 -23 7 -13 7 -19 0 -19 -7 0 -10 -124
-10 -378 l0 -379 943 0 c575 -1 949 3 960 9 10 5 14 14 11 20 -4 6 -3 8 3 5
13 -8 86 67 76 77 -5 4 -1 6 7 4 8 -1 14 3 12 10 -1 6 1 11 5 10 11 -4 174
168 167 174 -3 4 1 5 8 4 7 0 15 4 16 9 7 20 25 35 35 28 5 -3 7 -2 4 4 -7 12
41 65 52 58 5 -2 11 5 14 17 4 12 9 19 13 16 7 -8 149 133 146 145 -1 5 2 6 8
2 5 -3 15 5 21 19 7 14 16 23 21 20 4 -3 11 3 15 13 4 10 15 24 25 31 10 7 15
18 12 24 -4 6 -3 8 3 5 10 -6 53 35 71 70 10 18 9 23 -6 27 -19 6 -2597 4
-2624 -2z m85 -9 c-7 -2 -21 -2 -30 0 -10 3 -4 5 12 5 17 0 24 -2 18 -5z
m2525 0 c-10 -2 -26 -2 -35 0 -10 3 -2 5 17 5 19 0 27 -2 18 -5z m-648 -696
c0 -2 -12 -14 -27 -28 l-28 -24 24 28 c23 25 31 32 31 24z"/>
<path d="M170 5664 l0 -184 170 0 c129 0 170 3 170 13 0 7 3 8 8 2 8 -12 1043
-14 1035 -2 -2 4 6 5 19 2 35 -9 868 -11 868 -2 0 4 12 7 28 6 24 0 25 -1 7
-9 -11 -4 85 -8 219 -7 l240 1 40 38 c23 21 37 38 32 38 -5 0 -3 7 4 15 7 8
16 12 21 9 5 -3 9 3 9 12 0 10 3 14 7 10 8 -8 123 104 123 121 0 6 5 15 12 19
7 5 8 2 3 -7 -4 -8 6 -1 23 15 17 16 29 33 26 37 -2 4 1 11 7 15 8 5 9 3 4 -7
-5 -8 1 -5 14 5 15 14 18 23 11 30 -13 13 -2490 17 -2490 4 0 -4 -5 -8 -11 -8
-5 0 -8 3 -6 8 9 13 -477 12 -485 -1 -5 -8 -11 -9 -15 -2 -5 6 -27 11 -50 11
l-43 2 0 -184z m2323 159 c-7 -2 -19 -2 -25 0 -7 3 -2 5 12 5 14 0 19 -2 13
-5z m-2270 -330 c-7 -2 -21 -2 -30 0 -10 3 -4 5 12 5 17 0 24 -2 18 -5z"/>
</g>
</svg>
